<svg xmlns="http://www.w3.org/2000/svg" width="80.411" height="80.412" viewBox="0 0 80.411 80.412"><path d="M552.078,608.071a40.206,40.206,0,1,1,40.205,40.206,40.205,40.205,0,0,1-40.205-40.206Z" transform="translate(-552.078 -567.865)" fill="#4160a5"/><path d="M609,597a.944.944,0,0,1-1,1h-3.989A1.014,1.014,0,0,1,603,596.986v-3.972A1.014,1.014,0,0,1,604.014,592h3.971A1.014,1.014,0,0,1,609,593.015V597Zm-31.972,27a.959.959,0,0,1-1.028-.995V606h4.333a6.453,6.453,0,0,0-.213,2,12.386,12.386,0,0,0,24.76,0,6.511,6.511,0,0,0-.211-2H609v16.986A1.014,1.014,0,0,1,607.986,624Zm15.255-24.079a8.149,8.149,0,1,1-8.149,8.149,8.165,8.165,0,0,1,8.149-8.149ZM608.9,588H576.079A4.079,4.079,0,0,0,572,592.079V624.92a4.092,4.092,0,0,0,4.08,4.08h32.841A4.079,4.079,0,0,0,613,624.921V592.1a4.109,4.109,0,0,0-4.1-4.1Z" transform="translate(-552.078 -567.865)" fill="#f1f2f2"/></svg>