<svg xmlns="http://www.w3.org/2000/svg" width="80.413" height="80.412" viewBox="0 0 80.413 80.412"><path d="M654.784,405.222a40.207,40.207,0,1,1,40.207,40.206,40.206,40.206,0,0,1-40.207-40.206Z" transform="translate(-654.784 -365.016)" fill="#005a84"/><path d="M676,424h9V396h-9v28Zm4.069-40.642c-3.175,0-5.25,2.083-5.25,4.82A4.8,4.8,0,0,0,679.947,393h.06c3.236,0,5.248-2.143,5.248-4.822a4.82,4.82,0,0,0-5.186-4.82ZM718,408.573V424h-9V409.02c0-3.763-1.372-6.331-4.812-6.331a5.188,5.188,0,0,0-4.874,3.4,6.281,6.281,0,0,0-.314,2.269V424h-9.5s.127-25.373,0-28H699v4.912l-.062.088H699v-.088a9.245,9.245,0,0,1,8.343-4.444c6.091,0,10.657,3.845,10.657,12.105Z" transform="translate(-654.784 -365.016)" fill="#f1f2f2"/></svg>