<svg xmlns="http://www.w3.org/2000/svg" viewBox="0 0 703.01 394.07"><defs><style>.cls-1{fill:#fff;}</style></defs><g id="Layer_2" data-name="Layer 2"><g id="Layer_1-2" data-name="Layer 1"><path class="cls-1" d="M342,100q0,27.6.08,55.19c0,.4-.05.79-.12,1.68-1.16-.62-2-1.05-2.8-1.51-11.54-6.55-23-13.15-34.61-19.66C293.4,129.39,282.21,123.21,271,117L231.46,94.92Q217,86.85,202.57,78.78q-10.66-6-21.26-12.09c-6.93-4-13.84-3.91-20.75,0-8.07,4.56-16.11,9.19-24.21,13.7C123.92,87.31,111.44,94.13,99,101c-12.15,6.76-24.27,13.59-36.41,20.37a22.54,22.54,0,0,0-7.21,5.84,19.17,19.17,0,0,0-4,9.87c-.43,4.5-.33,8.94,1.61,13.16a19.73,19.73,0,0,0,8.26,9.06l24.51,14.13,40.92,23.59,31.6,18.16q15.69,9,31.39,18c4.9,2.83,8.48,6.77,9.93,12.37a19.19,19.19,0,0,1-7.53,21A71,71,0,0,1,180,273.46a17.9,17.9,0,0,1-14.9,0,100.72,100.72,0,0,1-9.88-5.42Q138,258.21,120.9,248.28,106.45,240,92,231.62q-16-9.23-32-18.41C51.23,208.15,42.46,203,33.67,198c-9.49-5.47-19-10.89-28.5-16.34-1.18-.68-2.31-1.46-3.53-2a2.19,2.19,0,0,1-1.35-2.28c0-4.08,0-8.16,0-12.23Q.18,133.28.1,101.49C.1,98.6-.31,99,2.46,97.4l33-19.15L63.84,61.76,98.05,41.9q19.19-11.14,38.36-22.28Q151.55,10.82,166.66,2c1.3-.76,2.63-1.85,4-2s2.72,1.18,4,1.93c8,4.56,15.92,9.17,23.89,13.76q13.71,7.89,27.44,15.76L279.3,62l36.17,20.77c8.25,4.73,16.49,9.48,24.77,14.16A3,3,0,0,1,342,100Z"/><path class="cls-1" d="M342,264.49c0,9.52,0,19,.09,28.55a3.59,3.59,0,0,1-2.06,3.61q-15.3,8.76-30.51,17.64-14.1,8.18-28.19,16.39-18.24,10.62-36.48,21.22Q227.52,362,210.2,372q-17.73,10.29-35.46,20.58c-3.34,2-3.34,2-6.79,0q-17.05-9.78-34.1-19.59Q108,358.16,82.08,343.28q-18-10.32-36-20.61Q27.15,311.81,8.23,300.9c-2.14-1.24-4.27-2.51-6.48-3.63a2.71,2.71,0,0,1-1.63-2.84c0-7.2,0-14.4,0-21.6,0-8.48,0-16.95,0-25.43,0-2.72-.07-5.44-.09-8.16,0-.47.06-.94.13-1.83,1.39.75,2.45,1.29,3.47,1.87,11.32,6.45,22.61,12.95,34,19.33,13.94,7.83,27.94,15.55,41.91,23.33q15.72,8.74,31.42,17.51,23.62,13.26,47.23,26.59c.9.51,1.79,1,2.7,1.55,7.12,4,14.13,3.74,21.17-.33,15.5-9,31.18-17.61,46.85-26.27q18.38-10.14,36.7-20.34c5.1-2.84,10.22-5.65,15.23-8.64,6.53-3.9,10-9.69,10.09-17.38a28.49,28.49,0,0,0-.28-6,19.85,19.85,0,0,0-9.83-13.81c-4.14-2.43-8.32-4.78-12.47-7.18-5.2-3-10.38-6-15.58-9-6.51-3.74-13-7.44-19.57-11.18q-16.31-9.39-32.6-18.82l-28.47-16.39c-6.93-4-13.9-7.91-20.75-12a19.53,19.53,0,0,1-.05-33.5c2.8-1.71,5.65-3.33,8.52-4.91,6.29-3.47,12.71-3.64,19-.17,7.21,4,14.3,8.17,21.44,12.27q13.52,7.77,27,15.56t27,15.58q12.25,7.06,24.53,14.09l26.39,15.19,34.3,19.73a14,14,0,0,0,1.25.72,1.65,1.65,0,0,1,1.07,1.69c0,.64,0,1.28,0,1.92Q341.89,241.46,342,264.49Z"/><path class="cls-1" d="M393.35,346.94c0,2.23.26,4.48-.33,6.68a7.83,7.83,0,0,1-5.56,5.75,13,13,0,0,1-8,0,8.34,8.34,0,0,1-5.92-7.64c-.08-1.83,0-3.67,0-5.51h0c0-1.44,0-2.88,0-4.32.05-5,2.72-8.33,7.67-9.18,3.81-.65,7.32,0,10.14,3a7.76,7.76,0,0,1,2,4.52c.13,1-.19,1.33-1.13,1.43-.32,0-.64,0-1,0-.92.06-1.52-.2-1.59-1.27-.31-4.92-6.38-6-9.92-4a4.68,4.68,0,0,0-2.5,4.12c-.07,3.84-.07,7.67,0,11.51a4.89,4.89,0,0,0,3.35,4.55,8,8,0,0,0,6.08,0,4.53,4.53,0,0,0,3-3.74,6.19,6.19,0,0,0,.06-1c0-3.37.17-3.07-2.88-3.08-.64,0-1.28,0-1.92,0-1.08-.07-1.26-.27-1.3-1.28,0-1.17.19-1.53,1.28-1.55,2.48-.05,4.95,0,7.43,0A1,1,0,0,1,393.35,346.94Z"/><path class="cls-1" d="M410.45,342.08c-.35,1.39-.35,1.39-1.72,1.41h-1c-3.19.07-4.72,1.54-4.77,4.7s0,6.07,0,9.11c0,.56,0,1.12-.07,1.67a.79.79,0,0,1-.76.78,11.54,11.54,0,0,1-1.44,0c-1.26-.05-1.4-.13-1.42-1.39,0-2.71,0-5.43,0-8.15h0c0-2.64,0-5.28,0-7.92,0-.68-.18-1.5.77-1.79,1.17-.35,2.53-.06,2.87.83s.8.88,1.38.34a5.74,5.74,0,0,1,4.85-1.56C410.5,340.32,410.78,340.75,410.45,342.08Z"/><path class="cls-1" d="M370,138.22c.08-1.21.27-1.45,1.41-1.48,1.75-.05,3.51,0,5.27,0,.91,0,1.29.49,1.3,1.35,0,.32,0,.64,0,1-.09,3.9,2,6.44,5.22,8.21a14.21,14.21,0,0,0,4.28,1.52,27,27,0,0,0,10.25,0,10.77,10.77,0,0,0,5.33-2.57,7.41,7.41,0,0,0-.21-11.38,22.78,22.78,0,0,0-6.25-3.51c-3.84-1.58-7.75-3-11.61-4.54a51.72,51.72,0,0,1-6.12-2.75c-3.42-1.93-6.27-4.52-7.3-8.49-1.43-5.49-.21-10.29,4.13-14.13a15.53,15.53,0,0,1,5.8-3.27c7.72-2.36,15.36-2.21,22.7,1.23,5.44,2.54,8.73,6.87,9.12,13.07,0,.56,0,1.12,0,1.68a1.1,1.1,0,0,1-1.2,1.19c-1.92,0-3.84,0-5.76,0a1.07,1.07,0,0,1-1.19-1.18c0-.4-.08-.8-.11-1.2-.27-4.16-2.68-6.84-6.32-8.28a20.68,20.68,0,0,0-14.34-.36,7.25,7.25,0,0,0-5.23,7.48,7.13,7.13,0,0,0,3.94,6.41,50.83,50.83,0,0,0,8.1,3.57c4.44,1.6,8.87,3.21,13.14,5.22a18.22,18.22,0,0,1,7.07,5.6c4.17,5.64,2.88,14-2.72,18.53-3.91,3.15-8.5,4.31-13.37,4.65-1,.07-2.08,0-3.12,0a27.07,27.07,0,0,1-14.14-3C372.47,149.79,369.55,144.92,370,138.22Z"/><path class="cls-1" d="M375.88,223.52c-2.78,0-2.8,0-2.8-2.79q0-13.18,0-26.37v-24.7c0-.56,0-1.12,0-1.67,0-2.18.12-2.26,2.33-2.3,1.44,0,2.88,0,4.31,0s1.6.27,1.66,1.74c0,.63,0,1.28,0,1.91V214c0,3.14-.1,3,3,3h26.86c2.2,0,2.26.09,2.28,2.31,0,1,0,2.08,0,3.12a1.05,1.05,0,0,1-1.21,1.14l-1.44,0Z"/><path class="cls-1" d="M414.37,234.87c0,.7-.41,1-1,1.06s-1.12,0-1.68,0H381.91c-4.14,0-3.66-.37-3.67,3.77,0,6.47,0,12.94,0,19.42,0,2.61,0,2.62,2.68,2.63h20.63c.64,0,1.28,0,1.92,0s1.12.18,1.15.92-.46.95-1.08,1-1.28,0-1.92,0h-21.1c-2.24,0-2.27,0-2.27,2.29,0,7.51,0,15,0,22.54,0,.72,0,1.44-.06,2.16a1,1,0,0,1-1.13,1,.94.94,0,0,1-1.07-1c0-.64,0-1.28,0-1.92V262.9q0-13.18,0-26.38c0-2.54,0-2.61,2.49-2.62q16.79,0,33.57,0a11.32,11.32,0,0,1,1.43.1C413.94,234.06,414.36,234.27,414.37,234.87Z"/><path class="cls-1" d="M418.76,356.7c0,.48,0,1,0,1.43-.1,1.46-.29,1.63-1.72,1.67-1.72,0-1.9-.1-1.93-1.86,0-2.63,0-5.26,0-7.88s0-5.26,0-7.89c0-.62-.12-1.38.7-1.58a3,3,0,0,1,2.52.21,1.25,1.25,0,0,1,.4,1.09c0,.95,0,1.91,0,2.86Q418.78,350.74,418.76,356.7Z"/><path class="cls-1" d="M419.38,334.85a2.56,2.56,0,0,1-2.52,2.36,2.41,2.41,0,0,1-2.26-2.56,2.34,2.34,0,0,1,2.46-2.1A2.53,2.53,0,0,1,419.38,334.85Z"/><path class="cls-1" d="M429.5,234.9a11.61,11.61,0,0,1,.09,1.67V289c0,.56,0,1.12-.06,1.68a1,1,0,0,1-1.12,1,.93.93,0,0,1-1.08-1c0-.64,0-1.28,0-1.92v-52c0-.64,0-1.28.05-1.92a.9.9,0,0,1,.95-.87C428.93,234,429.41,234.22,429.5,234.9Z"/><path class="cls-1" d="M425.64,223.51c-1.17-.06-1.35-.27-1.44-1.45-.05-.64,0-1.28,0-1.92v-25.9q0-12.94,0-25.89c0-2.64,0-2.64,2.66-2.66,1.44,0,2.88,0,4.31,0A1.21,1.21,0,0,1,432.5,167c0,.64,0,1.28,0,1.92q0,25.65,0,51.31c0,3.78-.24,3.22-3.3,3.25C428,223.54,426.83,223.56,425.64,223.51Z"/><path class="cls-1" d="M441.51,346c.08,4.15.05,8.31,0,12.47,0,1.25-.14,1.33-1.41,1.37-.4,0-.8,0-1.2,0a.87.87,0,0,1-.95-.86,15.72,15.72,0,0,1-.06-1.68c0-3.2,0-6.4,0-9.6a4.46,4.46,0,0,0-1.22-3.51,4.92,4.92,0,0,0-4.95-1,4,4,0,0,0-2.9,3.49,14,14,0,0,0-.09,2.15c0,3.12,0,6.24,0,9.36,0,1.54-.15,1.62-1.66,1.64-1.72,0-1.84-.08-1.86-1.93,0-2.56,0-5.12,0-7.68s0-5.28,0-7.92c0-.6-.17-1.33.61-1.67s2.51-.2,2.82.47c.51,1.11,1,.63,1.63.23a7.74,7.74,0,0,1,8.6.06A5.34,5.34,0,0,1,441.51,346Z"/><path class="cls-1" d="M464,334a1,1,0,0,0-1-1.08c-.4,0-.8,0-1.2,0-1.17.06-1.39.23-1.42,1.42-.06,1.83,0,3.67,0,5.51,0,.6.21,1.27-.34,1.79-.76.13-1.14-.52-1.68-.8a7.79,7.79,0,0,0-10.9,4.54,14.63,14.63,0,0,0-.19,8.27c1.51,5.77,6.79,8,11.88,4.93.54-.32,1-.59,1.23.3.13.52.4.87,1,.87a5,5,0,0,0,2.35-.2A.9.9,0,0,0,464,359a11.56,11.56,0,0,0,.06-1.44V335.24C464,334.84,464,334.44,464,334ZM459.74,354a4.23,4.23,0,0,1-4.28,3.16,4.41,4.41,0,0,1-4.4-3,10.94,10.94,0,0,1,.08-8.17,4.34,4.34,0,0,1,4.9-3c2,.2,3.31,1.4,3.83,3.67a10.87,10.87,0,0,1,.36,3.55A9.48,9.48,0,0,1,459.74,354Z"/><path class="cls-1" d="M470.9,152.46q-3.37-9.6-6.74-19.22-5.07-14.48-10.1-29c-.58-1.66-1.15-3.33-1.76-5-.71-1.88-.82-2-2.77-2-1,0-2.08,0-3.11,0h0c-1.12,0-2.25,0-3.36,0a2.18,2.18,0,0,0-2.46,1.76c-.91,2.9-1.91,5.76-2.91,8.63q-6.21,17.9-12.45,35.77c-1.18,3.4-2.39,6.78-3.54,10.19-.43,1.25-.18,1.61,1.14,1.67s2.71,0,4.07,0c3,0,3,0,4-3,.67-2.06,1.38-4.09,2-6.16a2.06,2.06,0,0,1,2.26-1.65c7.52,0,15,0,22.55,0,1.67,0,1.71.07,2.31,1.82.84,2.41,1.67,4.83,2.43,7.27a2.09,2.09,0,0,0,2.29,1.66c1.36,0,2.72,0,4.08,0C471.88,155.35,471.9,155.3,470.9,152.46Zm-15-14c-3.2,0-6.4,0-9.59,0s-6.08,0-9.11,0c-1.38,0-1.58-.32-1.18-1.6.74-2.36,1.53-4.71,2.32-7.06L445.41,109a3,3,0,0,1,.15-.45c.25-.46.15-1.28.88-1.26s.72.74.89,1.26Q452,122.26,456.58,136c.12.38.28.76.36,1.14C457.15,138.14,456.93,138.49,455.88,138.5Z"/><path class="cls-1" d="M481,332.42c0,4.71,0,9.42,0,14.13,0,4.48,0,8.95,0,13.42q0,.84,0,1.68a.94.94,0,0,1-1,1c-2.5.09-2.53,0-2.52-2.23q0-10.9,0-21.81c0-2.16,0-4.31,0-6.47,0-1.53.18-1.64,1.65-1.67C480.82,330.48,481,330.62,481,332.42Z"/><path class="cls-1" d="M485.18,235c-.08.7-.55.91-1.17.93l-1.68,0H468.67c-.56,0-1.12,0-1.68,0a1.05,1.05,0,0,0-1.21,1.15c0,.72,0,1.44,0,2.16v48.9c0,.8,0,1.6,0,2.4s-.49,1.12-1.25,1.11-1.14-.45-1.14-1.21,0-1.28,0-1.92V239.42c0-.48,0-1,0-1.44-.05-1.93-.08-2-2.05-2-4.64,0-9.28,0-13.91,0a11,11,0,0,1-1.91-.13c-.42-.08-.56-.52-.55-1a.77.77,0,0,1,.48-.75,6.12,6.12,0,0,1,2.37-.25H482c.72,0,1.44,0,2.15.09S485.26,234.26,485.18,235Z"/><path class="cls-1" d="M490.41,167q-.72,2.53-1.58,5c-2.88,8.39-5.8,16.76-8.68,25.15-2.72,7.94-5.4,15.88-8.11,23.82-.15.45-.32.9-.46,1.36a1.65,1.65,0,0,1-1.82,1.21c-1.92,0-3.84-.07-5.76,0a1.89,1.89,0,0,1-2.06-1.56c-.89-2.65-1.81-5.29-2.71-7.94q-5.18-15.2-10.32-30.41-2.66-7.83-5.27-15.67c-.13-.38-.25-.76-.36-1.15-.2-.72.18-1.09.85-1.09,2.16,0,4.31,0,6.47,0,.86,0,1.23.57,1.47,1.33.76,2.36,1.57,4.7,2.33,7.06q5.27,16.42,10.54,32.85c.55,1.74,1.18,3.46,2,5.76a22.82,22.82,0,0,0,2.21-5.63c2.09-6.37,4.1-12.78,6.14-19.17l6.22-19.39c.13-.38.23-.77.36-1.15.55-1.55.63-1.65,2.19-1.68,1.84,0,3.68,0,5.52,0C490.48,165.76,490.68,166,490.41,167Z"/><path class="cls-1" d="M510.3,358.45a12.68,12.68,0,0,1-6.68,1.53,12.53,12.53,0,0,1-6.46-1.52,6.83,6.83,0,0,1-3.66-5.56c-.1-1.25.15-1.5,1.48-1.55.32,0,.64,0,1,0a1,1,0,0,1,1.11,1c.24,3.08,2.37,4.1,5,4.6a10.08,10.08,0,0,0,5-.27,3.77,3.77,0,0,0,1-7,36.42,36.42,0,0,0-5.45-2.44c-1.54-.64-3.14-1.2-4.61-2-2-1.06-3.51-2.54-3.83-4.91a6.21,6.21,0,0,1,3.69-6.64,12.88,12.88,0,0,1,12,.45,6.52,6.52,0,0,1,3.54,5.63c.06,1-.25,1.28-1.22,1.39-1.69.18-2,0-2.4-1.73a4.57,4.57,0,0,0-3.06-3.41,9.7,9.7,0,0,0-6.34-.18,3.68,3.68,0,0,0-1,6.58,18.16,18.16,0,0,0,3.25,1.53c2,.81,4,1.61,6,2.38a9.28,9.28,0,0,1,2.47,1.45A6.3,6.3,0,0,1,510.3,358.45Z"/><path class="cls-1" d="M493.1,153.24c-.94-2.72-1.83-5.46-2.75-8.18q-3.72-11-7.46-22l-8-23.61a7.45,7.45,0,0,1-.27-.92.83.83,0,0,1,.85-1.13c1-.06,2.08-.07,3.12,0,5.26.06,4.13-.64,5.68,4.11q5.56,17.1,11,34.21,1.19,3.65,2.4,7.29c.12.37.25.76.75.89.75-.44.83-1.28,1.07-2q3.66-11.4,7.3-22.83,3-9.47,6.06-18.94.26-.8.54-1.59a1.49,1.49,0,0,1,1.43-1.08c2.08,0,4.16,0,6.23,0,.69,0,1,.42.75,1.14-.52,1.59-1,3.21-1.52,4.79q-6.42,18.83-12.88,37.64-2.06,6-4.16,12c-.81,2.35-.87,2.39-3.43,2.41-1.36,0-2.72,0-4.08,0C494,155.3,493.75,155.11,493.1,153.24Z"/><path class="cls-1" d="M503,239.06a6,6,0,0,0-.27,2.73q0,23.39,0,46.77c0,.72,0,1.44,0,2.16a.92.92,0,0,1-1.09,1c-.61,0-1.12-.19-1.2-.9a15.44,15.44,0,0,1-.07-1.67V236.59c0-.32,0-.64,0-1,0-.63-.05-1.34.78-1.55a1.86,1.86,0,0,1,2,.46,12.12,12.12,0,0,1,1,1.36q10.44,15.65,20.86,31.31,6,9.07,12.06,18.17a3.15,3.15,0,0,0,1.16,1.25c.78-.52.45-1.31.46-1.95q0-15.36,0-30.71c0-5.75,0-11.51,0-17.27,0-.4,0-.8,0-1.2,0-.78.14-1.45,1.12-1.49s1.2.37,1.27,1.6c0,.32,0,.64,0,1V289.1c0,.4,0,.8,0,1.2,0,.56,0,1.17-.74,1.33a1.7,1.7,0,0,1-1.79-.36,20.27,20.27,0,0,1-1.53-2.14q-5.79-8.67-11.56-17.36L504.6,240.65C504.21,240.08,504,239.31,503,239.06Z"/><path class="cls-1" d="M532.72,153.45c0-.56,0-1.12,0-1.68V126.35q0-13.18,0-26.37c0-2.63,0-2.64,2.67-2.66,1.28,0,2.56,0,3.84,0,1.51,0,1.75.31,1.89,1.85,0,.47,0,.95,0,1.43v51.32c0,3.37-.07,3.42-3.53,3.43-1,0-2.08,0-3.11,0C532.94,155.27,532.79,155.08,532.72,153.45Z"/><path class="cls-1" d="M540.25,165.71c1.19.1,1.38.26,1.44,1.45s0,2.4,0,3.6-.22,1.37-1.4,1.44c-.64,0-1.28,0-1.92,0H511.49c-2.79,0-2.8,0-2.8,2.74q0,6.72,0,13.44c0,.56,0,1.12.05,1.68a1,1,0,0,0,.94.91c.64,0,1.28,0,1.92,0h16.8c.64,0,1.28,0,1.92,0,1.14.09,1.37.3,1.41,1.47s0,2.4,0,3.6-.17,1.42-1.6,1.49c-.56,0-1.12,0-1.68,0h-16.8l-1.68,0c-.92,0-1.27.49-1.27,1.36v16.55a1.17,1.17,0,0,0,1.3,1.34l1.92,0h26.4c.64,0,1.28,0,1.92,0,1.2.08,1.4.25,1.45,1.43s0,2.56,0,3.84a1.18,1.18,0,0,1-1.37,1.29l-1.44,0H503.11c-2.74,0-2.84.22-2.83-3q0-13,0-25.92V168.48c0-2.77,0-2.79,2.77-2.79h36C539.45,165.69,539.85,165.67,540.25,165.71Z"/><path class="cls-1" d="M544.71,340.85c-.09,1.85-.93,3.52-1.44,5.26-1.16,4-2.46,7.94-3.73,11.89-.21.66-.25,1.55-1.1,1.71a5.62,5.62,0,0,1-2.85-.07c-.61-.21-.64-.88-.8-1.4-.91-2.81-1.78-5.64-2.68-8.45-.29-.91-.62-1.81-.92-2.68-.76,0-.83.53-1,1-.92,3-1.81,6-2.71,8.95a5.51,5.51,0,0,1-.24.93c-.3.62-.21,1.54-1.07,1.74a6.1,6.1,0,0,1-2.85,0c-.54-.13-.63-.67-.77-1.12-.44-1.37-.87-2.74-1.3-4.12-1.26-4-2.53-8.08-3.77-12.13-.51-1.65-.36-1.83,1.28-1.84s1.77,0,2.27,1.78c1,3.61,2.06,7.22,3.07,10.84.13.46.12,1,.68,1.2.81-.31.76-1.14.95-1.78,1-3.45,2-6.91,3-10.36.46-1.56.68-1.69,2.15-1.68s1.59.11,2,1.52c1.06,3.52,2.07,7.06,3.13,10.58.18.59.2,1.28.87,1.76.78-.49.78-1.2.95-1.78.92-3.06,1.79-6.14,2.68-9.21.07-.23.14-.45.22-.68C541.58,340.21,541.87,340.07,544.71,340.85Z"/><path class="cls-1" d="M552.5,351.28c.64,0,1.28,0,1.92,0,3.12,0,6.23,0,9.35,0,1.22,0,1.36-.19,1.4-1.41a12.58,12.58,0,0,0-1-5.61,6,6,0,0,0-3.3-3.32,10.71,10.71,0,0,0-8-.16,7.28,7.28,0,0,0-4.72,5.33,15,15,0,0,0,.34,8.51,7.14,7.14,0,0,0,4,4.54,10.72,10.72,0,0,0,10.11-.75,3.92,3.92,0,0,0,1.85-2c-.23-.53-.68-.73-1.06-1a1.38,1.38,0,0,0-2.08.18c-1.77,1.77-4,1.88-6.25,1.34a4.45,4.45,0,0,1-3.59-4.26C551.43,351.8,551.68,351.31,552.5,351.28Zm1.51-7.87a5.73,5.73,0,0,1,5.67.41,4.15,4.15,0,0,1,1.55,2.05c.71,2,.31,2.54-1.82,2.57s-4,0-5.95,0a2.74,2.74,0,0,1-1.9-.37C551.53,346.09,551.94,344.26,554,343.41Z"/><path class="cls-1" d="M586.12,352.24h0c0-2,0-4,0-6a5.36,5.36,0,0,0-3-4.87,10.6,10.6,0,0,0-10.12-.13,5.67,5.67,0,0,0-2.62,2.39,1.14,1.14,0,0,0,0,1.35c.57.67,2.94.7,3.47-.08,1.4-2.07,3.42-2.16,5.55-1.85a3.18,3.18,0,0,1,3,3.6c0,1-.21,1.28-1.24,1.32-1.36,0-2.72,0-4.08,0a10.24,10.24,0,0,0-5.26,1.4,5.58,5.58,0,0,0-2.58,5.78,4.91,4.91,0,0,0,3.67,4.27,9.33,9.33,0,0,0,6.34,0,18.44,18.44,0,0,0,2.13-1.07c.42-.21.86-.21,1,.28.24,1.2,1.08,1.18,2,1.16,1.61,0,1.72-.1,1.76-1.81C586.15,356.08,586.12,354.16,586.12,352.24Zm-4.56,3.19a7.27,7.27,0,0,1-7.16,1.13,2.44,2.44,0,0,1-1.5-2.24,2.52,2.52,0,0,1,1.24-2.4c1.42-.86,3-.88,4.58-1.11a7.51,7.51,0,0,1,.95,0h.24c.81.14,1.83-.38,2.36.61A4.36,4.36,0,0,1,581.56,355.43Z"/><path class="cls-1" d="M551.38,212.17a21.28,21.28,0,0,1-.42-5.95,1,1,0,0,1,1-1.11c1.92-.05,3.83-.06,5.75,0,.75,0,1.13.5,1.14,1.26,0,.32,0,.64,0,1,0,4.2,2.28,6.86,5.84,8.59a15,15,0,0,0,5.76,1.5,44.2,44.2,0,0,0,6.71,0,12.87,12.87,0,0,0,5.61-1.92c4.17-2.56,5.06-9.34.49-12.65a32.9,32.9,0,0,0-7.42-3.85c-2.9-1.15-5.84-2.16-8.74-3.31-2.08-.82-4.14-1.7-6.16-2.66a22.69,22.69,0,0,1-5.62-4c-4.56-4.23-4.39-13-.62-17.39a16.62,16.62,0,0,1,8.13-5.26,33.44,33.44,0,0,1,19.39.19,18,18,0,0,1,8.08,5A14.3,14.3,0,0,1,594.15,182c0,1.36-.23,1.63-1.47,1.67-1.75.07-3.52.07-5.27,0-1.15,0-1.44-.28-1.4-1.46.17-5.15-3.79-8.75-8.21-9.91a23,23,0,0,0-11.4-.08c-5,1.23-7.44,5.53-5.93,10.24a7.6,7.6,0,0,0,3.93,4.32,50.75,50.75,0,0,0,6.38,2.76c4.41,1.67,8.87,3.18,13.16,5.17a23.89,23.89,0,0,1,7,4.54,13.52,13.52,0,0,1,2.55,15.13,14.47,14.47,0,0,1-6.75,6.87,24.09,24.09,0,0,1-9.38,2.7c-1.12.1-2.23.17-3.71.29-4.87-.11-10-.63-14.73-3.2A14.53,14.53,0,0,1,551.38,212.17Z"/><path class="cls-1" d="M559.84,237.58c0-.64,0-1.28,0-1.91.09-1.41.34-1.65,1.72-1.76.48,0,1,0,1.44,0H595.4a19.08,19.08,0,0,1,2.39.18.76.76,0,0,1,.68.83.83.83,0,0,1-.62.91,12.76,12.76,0,0,1-2.14.14q-15,0-30,0c-3.74,0-3.4-.42-3.41,3.52q0,9.84,0,19.67c0,2.6,0,2.61,2.68,2.62h20.63c.64,0,1.28,0,1.92,0s1.14.19,1.15.92c0,.9-.62,1-1.3,1H564.84c-2.51,0-2.53,0-2.53,2.5q0,10.54,0,21.1c0,.32,0,.64,0,1,.09,1.21.23,1.37,1.41,1.44.63,0,1.28,0,1.92,0h29.74c.72,0,1.44,0,2.15.05a.94.94,0,0,1,.94.91.86.86,0,0,1-.86.95,15.18,15.18,0,0,1-1.91.1H562.13c-2.12,0-2.28-.17-2.28-2.38q0-12.58,0-25.18Z"/><path class="cls-1" d="M556.07,154q0-1,0-1.92,0-25.78,0-51.57c0-3.2,0-3.2,3.1-3.21a12.17,12.17,0,0,0,1.91,0c2.24-.38,3.46.76,4.62,2.54,8.42,12.91,16.93,25.77,25.42,38.64.38.59.64,1.29,1.31,1.65.71-.13.58-.7.58-1.14,0-6.79-.07-13.59-.09-20.38q0-9.7,0-19.43c0-1.56.28-1.81,1.82-1.85s3.2,0,4.8,0,1.74.32,1.83,1.87c0,.4,0,.8,0,1.2v51.81c0,3.13,0,3.13-3.25,3.14-.88,0-1.76-.06-2.64,0a3.14,3.14,0,0,1-3.13-1.69c-3.85-6-7.79-11.9-11.71-17.83l-14.7-22.16c-.34-.52-.57-1.17-1.32-1.35-.64.76-.37,1.67-.37,2.51,0,12.23.06,24.46.07,36.7,0,3.81.49,3.84-3.73,3.81l-3.12,0A1.23,1.23,0,0,1,556.07,154Z"/><path class="cls-1" d="M596.36,348.32c0,1.68,0,3.36,0,5,.06,2.5.6,3.11,3,3.54.31.05.63.06.95.09.67,0,1,.43,1,1.08.15,1.32-.14,1.67-1.54,1.74h-.71a8.58,8.58,0,0,1-2.37-.26c-2.77-.65-3.77-1.77-3.84-4.66s0-5.74,0-8.62c0-.56,0-1.11,0-1.67,0-.84-.26-1.4-1.21-1.38l-.72,0c-.82,0-1.11-.45-1.11-1.22s.16-1.43,1.13-1.48l1-.06c.7,0,1-.46,1-1.11,0-.88,0-1.76,0-2.63.06-1.17.26-1.34,1.44-1.41H595c.88,0,1.34.32,1.33,1.24s0,1.92,0,2.88a.93.93,0,0,0,1,1c.88,0,1.76,0,2.64.06,1.15.07,1.39.36,1.37,1.47s-.18,1.17-1.32,1.23c-.8,0-1.6,0-2.39,0s-1.34.4-1.34,1.29C596.38,345.77,596.36,347.05,596.36,348.32Z"/><path class="cls-1" d="M617.58,331.53c0,.63,0,1.27,0,1.91V359.8c0,.56,0,1.12,0,1.68,0,.94-.49,1.21-1.35,1.24-2.15.09-2.29,0-2.3-2.2q0-13.9,0-27.8c0-2.16.38-2.45,2.54-2.2C617.14,330.59,617.55,330.85,617.58,331.53Z"/><path class="cls-1" d="M650.15,347a25.73,25.73,0,0,1-.28,6.44,7.8,7.8,0,0,1-5.85,6,11.93,11.93,0,0,1-9.71-1,7.79,7.79,0,0,1-4-6.72c-.13-3.59-.06-7.19,0-10.78a8.41,8.41,0,0,1,5.83-7.7c4.44-1.35,8.52-1,12,2.47a7.44,7.44,0,0,1,2,4.52c.13,1-.19,1.32-1.14,1.42-.31,0-.64,0-1,0-.92.06-1.47-.22-1.59-1.28a4.86,4.86,0,0,0-3.19-4.41,7.8,7.8,0,0,0-6.91.51A5.07,5.07,0,0,0,634,341c-.08,1.83,0,3.67,0,5.51h0c0,1.6,0,3.2,0,4.79.11,3.31,1.75,5.16,5,5.7a8,8,0,0,0,1.19.14c4.59.13,7.17-3,6.25-7.46-.14-.7-.59-.87-1.2-.88-1.2,0-2.4,0-3.6,0s-1.24-.27-1.27-1.3.2-1.5,1.31-1.52c2.39-.05,4.79,0,7.19,0C649.59,345.9,650.15,346.14,650.15,347Z"/><path class="cls-1" d="M646.34,288.14a18.4,18.4,0,0,1-7.3,3.45,28.58,28.58,0,0,1-6.86.85c-5.43-.06-9.77-.61-13.8-2.62a13.15,13.15,0,0,1-6.89-7.31,17.69,17.69,0,0,1-.74-6.86c0-.63.28-1.09,1-1.12s1.14.44,1.18,1.18c0,.48,0,1,0,1.44-.15,6.1,2.92,9.62,8,11.49a29.52,29.52,0,0,0,20,.27,10.29,10.29,0,0,0,7.39-8.63,10.62,10.62,0,0,0-4.43-10.72,38,38,0,0,0-7.92-4.45c-4.55-2-9.11-3.9-13.66-5.85a27,27,0,0,1-4.86-2.59,11.5,11.5,0,0,1-5.36-10.84,11.73,11.73,0,0,1,7.39-10.62,23.37,23.37,0,0,1,6.71-1.73,30.76,30.76,0,0,1,14.65,1.46c4.78,1.79,8.13,5,9.2,10.18a19,19,0,0,1,.22,4.06c0,.8-.43,1.14-1.21,1.15s-1.16-.4-1.17-1.16l0-1c-.08-6.39-3.39-9.81-8.68-11.54a28.83,28.83,0,0,0-17.25-.21,11,11,0,0,0-3.64,1.79c-3.4,2.52-4.19,6.06-3.78,10,.33,3.21,2.26,5.4,4.83,7.07a44.39,44.39,0,0,0,8.89,4.14,97.17,97.17,0,0,1,12.92,5.71,47.36,47.36,0,0,1,5,3.29C652.45,273.08,652.44,283.28,646.34,288.14Z"/><path class="cls-1" d="M656,145.56c-2.54,5.32-7,8.25-12.51,9.53a28,28,0,0,1-17.43-1.1,17.83,17.83,0,0,1-10.91-12.24,22.31,22.31,0,0,1-.58-5.7c0-3.52,0-7,0-11.32.12-3.15-.13-7.07.16-11,.44-6,3.38-10.38,8.29-13.58a20.83,20.83,0,0,1,8.26-3.06c6.59-1,12.93-.4,18.71,3.24a16.54,16.54,0,0,1,7.93,13,10.35,10.35,0,0,1,0,1.67,1,1,0,0,1-1.1,1c-2,0-4,0-6,0a1.14,1.14,0,0,1-1.23-1.19c0-.47,0-1-.09-1.43-.41-4.57-3-7.52-7.14-9a17.31,17.31,0,0,0-11.54-.17,10.6,10.6,0,0,0-7.76,9.37,15.41,15.41,0,0,0-.08,1.92q0,10.8,0,21.59a13.53,13.53,0,0,0,.46,3.79c1.08,3.81,3.77,6.05,7.32,7.32a17.7,17.7,0,0,0,11.78,0c4-1.36,7-4.57,7-9.52,0-1.92,0-3.84,0-5.76,0-1.34-.22-1.52-1.56-1.54-3,0-5.91,0-8.87,0-2.8,0-2.82,0-2.81-2.76,0-4-.35-3.61,3.58-3.62,5,0,10.07,0,15.11,0,.64,0,1.28,0,1.92,0a1,1,0,0,1,1,1.07c0,.16,0,.32,0,.48,0,3.91.18,7.83-.15,11.74A20.54,20.54,0,0,1,656,145.56Z"/><path class="cls-1" d="M660,341.7c0,1.35,0,2.71,0,4.06v4.3h0c0,2.79,0,5.58,0,8.37,0,.55,0,1.22-.75,1.29s-1.77.35-2.53-.25c-.39-.31-.36-.87-.36-1.34,0-1.68,0-3.35,0-5q0-4.91,0-9.81c0-.56,0-1.11,0-1.67a1.11,1.11,0,0,1,1.24-1.14h1.2C659.66,340.5,660,340.94,660,341.7Z"/><path class="cls-1" d="M660.75,334.71a2.45,2.45,0,0,1-4.89.2,2.46,2.46,0,0,1,2.21-2.36A2.55,2.55,0,0,1,660.75,334.71Z"/><path class="cls-1" d="M681.58,343c-1.8,4.87-3.49,9.78-5.25,14.67-.26.73-.29,1.73-1.11,2a6.71,6.71,0,0,1-3.09,0c-.56-.08-.7-.6-.86-1-.74-2-1.46-4.06-2.19-6.09q-1.8-4.95-3.58-9.91a3,3,0,0,1-.31-1.84,1.17,1.17,0,0,1,.87-.35c2.48-.15,2.67,0,3.43,2.31q1.69,5.24,3.41,10.48c.15.45.23.94.75,1.18.85-.51.87-1.48,1.14-2.27,1.13-3.41,2.21-6.84,3.28-10.28.26-.83.58-1.42,1.6-1.43C682.51,340.42,682.52,340.44,681.58,343Z"/><path class="cls-1" d="M688,292.1c-1.66.22-3.34.28-4.21.34-5.41-.07-9.93-.61-14-2.85-6.07-3.31-7.64-8.18-7.25-14,0-.65.33-1.06,1-1.09a1.06,1.06,0,0,1,1.24,1.13c0,.56,0,1.12,0,1.68-.25,5.73,2.8,9.34,7.71,11.2a29.26,29.26,0,0,0,20.67.22A10.87,10.87,0,0,0,698.84,273a13.37,13.37,0,0,0-3.85-3.9,59.65,59.65,0,0,0-10.64-5.45c-3.44-1.5-6.92-2.93-10.37-4.42a23.91,23.91,0,0,1-5.6-3.19c-4.11-3.26-5.06-7.55-4.08-12.47.79-3.93,3.22-6.5,6.74-8.18a23.24,23.24,0,0,1,8.1-2,33.77,33.77,0,0,1,11.42.9,17.15,17.15,0,0,1,7.72,4.19c3.07,2.93,4,6.63,3.79,10.71a1.08,1.08,0,0,1-1.17,1.2c-.81,0-1.15-.43-1.17-1.19s0-1.27-.07-1.91a11.12,11.12,0,0,0-6.9-9.86,21.47,21.47,0,0,0-7.4-1.87,29.62,29.62,0,0,0-11.4.87,12.94,12.94,0,0,0-4.25,2.16c-4.51,3.54-4.56,11.37-.94,14.83a20,20,0,0,0,5.11,3.5c3.1,1.5,6.35,2.63,9.54,3.91a78.83,78.83,0,0,1,9.57,4.41c1.67.94,3.21,2.07,4.79,3.16,6.42,4.39,6.89,15.24-.4,20.39A20.47,20.47,0,0,1,688,292.1Z"/><path class="cls-1" d="M690.38,351.28c.71-.06,1.43,0,2.15,0,3,0,5.92,0,8.87,0,1.49,0,1.6-.17,1.61-1.7a13.26,13.26,0,0,0-.47-3.55c-1-3.73-3.33-5.66-7.19-5.87a11.35,11.35,0,0,0-3.34.19c-3.12.75-5.35,2.5-6,5.76a17.45,17.45,0,0,0,.12,7.84,7.2,7.2,0,0,0,4.45,5.29,10.79,10.79,0,0,0,9.68-.71,4.89,4.89,0,0,0,2.14-2.15,2.3,2.3,0,0,0-.3-.42c-1.68-1.29-1.68-1.28-3.36,0a6.84,6.84,0,0,1-7.26.34,4.52,4.52,0,0,1-2.15-3.55C689.14,351.65,689.36,351.36,690.38,351.28Zm1.26-7.77a5.62,5.62,0,0,1,5.71.25,4.23,4.23,0,0,1,1.9,3.43c.06.79-.25,1.22-1.06,1.23-2.4,0-4.8,0-7.2,0a2.3,2.3,0,0,1-1.67-.38C689.28,346.16,689.72,344.41,691.64,343.51Z"/></g></g></svg>