<svg xmlns="http://www.w3.org/2000/svg" width="80.412" height="80.412" viewBox="0 0 80.412 80.412"><path d="M757.492,507.074A40.206,40.206,0,1,1,797.7,547.28a40.206,40.206,0,0,1-40.206-40.206Z" transform="translate(-757.492 -466.868)" fill="#329dc3"/><path d="M822.637,491.681a20.328,20.328,0,0,1-5.849,1.6,10.217,10.217,0,0,0,4.478-5.633,20.392,20.392,0,0,1-6.466,2.471,10.19,10.19,0,0,0-17.351,9.288,28.908,28.908,0,0,1-20.988-10.64,10.194,10.194,0,0,0,3.15,13.6A10.124,10.124,0,0,1,775,501.09v.129a10.189,10.189,0,0,0,8.168,9.984,10.2,10.2,0,0,1-4.6.176,10.192,10.192,0,0,0,9.512,7.07,20.546,20.546,0,0,1-15.075,4.217,28.809,28.809,0,0,0,15.608,4.576c18.729,0,28.972-15.515,28.972-28.973,0-.441-.01-.881-.03-1.317a20.688,20.688,0,0,0,5.081-5.271Z" transform="translate(-757.492 -466.868)" fill="#f1f2f2"/></svg>