<svg xmlns="http://www.w3.org/2000/svg" width="80.411" height="80.411" viewBox="0 0 80.411 80.411"><path d="M654.785,506.646a40.206,40.206,0,1,1,40.206,40.206,40.205,40.205,0,0,1-40.206-40.206Z" transform="translate(-654.785 -466.441)" fill="#e42e28"/><path d="M690,514.776v-18.1l13.726,9.048L690,514.776Zm29-17.513A7.218,7.218,0,0,0,711.826,490H678.184A7.184,7.184,0,0,0,671,497.184v19.63A7.186,7.186,0,0,0,678.186,524h33.63A7.184,7.184,0,0,0,719,516.816V497.263Z" transform="translate(-654.785 -466.441)" fill="#f1f2f2" fill-rule="evenodd"/></svg>